<svg xmlns="http://www.w3.org/2000/svg" viewBox="0 0 1200 630"><defs><style>.cls-1{fill:#4516f2;}.cls-2,.cls-3{fill:#f9f9f9;}.cls-3{font-size:34.77px;}.cls-11,.cls-3,.cls-6{font-family:Montserrat-ExtraBold, Montserrat;font-weight:700;}.cls-4{letter-spacing:0em;}.cls-5{fill:#f9f3ff;}.cls-6{font-size:42px;}.cls-7{letter-spacing:-0.02em;}.cls-8{letter-spacing:-0.01em;}.cls-9{letter-spacing:0.01em;}.cls-10{letter-spacing:0em;}.cls-11{font-size:36.39px;}.cls-12{letter-spacing:-0.01em;}</style></defs><title>Artboard 1</title><g id="Layer_1" data-name="Layer 1"><rect class="cls-1" width="1200" height="630"/></g><g id="Layer_2" data-name="Layer 2"><path class="cls-2" d="M495.13,61.82H438.59a22.4,22.4,0,0,0-22.41,22.41v56.54a22.4,22.4,0,0,0,22.41,22.41h56.54a22.4,22.4,0,0,0,22.41-22.41V84.23A22.4,22.4,0,0,0,495.13,61.82ZM480.48,77.53l8.77,8.66,8.68-8.77,3.9,3.9-8.66,8.75,8.77,8.66-3.9,3.9L489.29,94l-8.7,8.79-3.86-3.88,8.66-8.77-8.79-8.7Zm-36.73,74.41a3.91,3.91,0,1,1,3.9-3.9A3.89,3.89,0,0,1,443.74,151.94Zm5.69-17.28c-3,3.26-2.78,4.87-2.78,7.07h-6c0-4.78-.15-6.7,4.27-10.91,1.72-1.63,3.06-2.91,2.86-5.44a3.92,3.92,0,0,0-4.05-3.66c-3.22,0-4.58,2.86-4.58,6.37h-6c0-8,4.58-12.14,10.69-12.14s10.22,3.7,10.16,9.7C454,129.8,451.46,132.51,449.43,134.67Zm-6-31.91a11.7,11.7,0,1,1,11.7-11.7A11.69,11.69,0,0,1,443.46,102.76Zm40.3,49.05-12.08-11.72,5-5,7.1,6.72,15.14-15.51,5,5Z"/><text class="cls-3" transform="translate(547.9 119.25)">THINKPOL<tspan class="cls-4" x="192.3" y="0">L</tspan><tspan x="213.43" y="0">S</tspan></text><rect class="cls-5" x="233" y="264.5" width="734" height="101" rx="32.32" ry="32.32"/><text class="cls-6" transform="translate(285.03 327.22)"><tspan class="cls-7">V</tspan><tspan class="cls-8" x="31.16" y="0">O</tspan><tspan x="66.27" y="0">TE N</tspan><tspan class="cls-7" x="167.22" y="0">O</tspan><tspan class="cls-9" x="201.74" y="0">W</tspan><tspan class="cls-10" x="251.89" y="0">!</tspan></text><rect class="cls-5" x="233" y="415" width="432" height="101" rx="31.25" ry="31.25"/><text class="cls-11" transform="translate(285.8 476.09)">N<tspan class="cls-12" x="29.33" y="0">O</tspan><tspan x="59.75" y="0">T INTRE</tspan><tspan class="cls-12" x="209.6" y="0">S</tspan><tspan x="232.78" y="0">TED</tspan></text></g></svg>