<svg  xmlns="http://www.w3.org/2000/svg" viewBox="0 0 48 48"><defs><style>.cls-1{fill:#fff;}</style></defs><title>thinkpolls-homepage</title><path class="cls-1" d="M36.83,1H11.17A10.17,10.17,0,0,0,1,11.17V36.83A10.17,10.17,0,0,0,11.17,47H36.83A10.17,10.17,0,0,0,47,36.83V11.17A10.17,10.17,0,0,0,36.83,1ZM30.18,8.13l4,3.93,3.94-4,1.77,1.77-3.93,4,4,3.93-1.77,1.77-4-3.93-4,4-1.75-1.76,3.93-4-4-3.95ZM13.51,41.9a1.78,1.78,0,1,1,1.77-1.77A1.77,1.77,0,0,1,13.51,41.9Zm2.58-7.84a3.67,3.67,0,0,0-1.26,3.21H12.11c0-2.17-.07-3,1.94-4.95.78-.74,1.39-1.32,1.3-2.47a1.78,1.78,0,0,0-1.84-1.66c-1.46,0-2.08,1.3-2.08,2.89H8.71c0-3.65,2.08-5.51,4.85-5.51s4.64,1.68,4.61,4.4A6,6,0,0,1,16.09,34.06ZM13.38,19.58a5.31,5.31,0,1,1,5.31-5.31A5.3,5.3,0,0,1,13.38,19.58ZM31.67,41.84l-5.48-5.32,2.26-2.26,3.22,3,6.87-7,2.27,2.26Z"/></svg>